<svg xmlns="http://www.w3.org/2000/svg" xmlns:xlink="http://www.w3.org/1999/xlink" width="1080" zoomAndPan="magnify" viewBox="0 0 810 809.999993" height="1080" preserveAspectRatio="xMidYMid meet" version="1.0"><defs><clipPath id="4cf491e28f"><path d="M 304 524 L 383 524 L 383 638.707031 L 304 638.707031 Z M 304 524 " clip-rule="nonzero"/></clipPath></defs><path fill="#fbec39" d="M 326.320312 457.984375 L 326.320312 520.558594 C 326.320312 523.695312 323.773438 526.226562 320.621094 526.226562 L 225.378906 526.226562 C 222.246094 526.226562 219.699219 523.695312 219.699219 520.558594 L 219.699219 457.984375 C 219.699219 454.832031 222.246094 452.285156 225.378906 452.285156 L 320.621094 452.285156 C 323.773438 452.285156 326.320312 454.832031 326.320312 457.984375 Z M 326.320312 457.984375 " fill-opacity="1" fill-rule="nonzero"/><path fill="#e5dfdf" d="M 627.894531 570.226562 C 626.011719 580.652344 619.449219 577.875 612.375 577.875 C 539.09375 577.886719 386.105469 577.835938 378.324219 577.929688 L 374.109375 490.84375 C 371.636719 449.78125 358.902344 453.753906 388.625 414.785156 C 394.140625 419.929688 400.433594 417.429688 402.167969 410.960938 C 402.976562 407.949219 402.722656 404.253906 402.382812 399.679688 C 402.472656 399.574219 402.5625 399.5 402.652344 399.429688 C 402.886719 400.703125 403.171875 401.960938 403.53125 403.238281 C 404.644531 407.207031 408.609375 409.128906 412.628906 408.335938 C 421.542969 406.609375 421.261719 395.457031 420.234375 386.445312 C 433.582031 378.636719 441.308594 378.410156 457.820312 378.433594 C 459.429688 378.433594 459.570312 379.039062 459.363281 379.871094 C 457.683594 386.71875 456.769531 387.335938 459.503906 390.144531 C 473.488281 404.5625 496.585938 399.183594 501.914062 384.613281 C 502.992188 381.683594 503.0625 378.578125 503.316406 375.523438 C 508.464844 375.039062 513.453125 375.917969 518.421875 377.070312 C 531.707031 380.144531 544.335938 384.980469 557.171875 389.855469 C 595.601562 404.511719 611.191406 440.089844 621.09375 473.40625 C 630.621094 505.390625 633.867188 537.324219 627.894531 570.226562 Z M 627.894531 570.226562 " fill-opacity="1" fill-rule="nonzero"/><path fill="#0200f6" d="M 361.496094 395.621094 L 362.019531 395.621094 C 362.125 399.160156 362.144531 402.679688 362.054688 406.128906 C 361.796875 403.429688 361.78125 401.589844 361.496094 395.621094 Z M 361.496094 395.621094 " fill-opacity="1" fill-rule="nonzero"/><path fill="#0200f6" d="M 450.992188 507.335938 C 450.667969 509.3125 449.175781 510.863281 447.214844 511.21875 C 445.402344 511.5625 314.867188 536.277344 313.253906 536.277344 C 312.695312 536.277344 314.339844 477.875 312.488281 462.496094 C 310.742188 444.160156 305.675781 426.664062 292.671875 413.519531 C 287.867188 408.636719 280.425781 406 273.855469 404.273438 C 266.300781 402.304688 264.464844 403.1875 263.585938 401.777344 C 262.851562 400.679688 263.667969 399.074219 265.578125 398.816406 C 273.84375 397.433594 292.144531 396.082031 301.804688 395.664062 C 302.371094 400.710938 304.472656 419.726562 304.652344 420.363281 C 304.832031 420.339844 312.132812 419.375 311.667969 419.4375 L 310.386719 395.519531 C 313.238281 395.605469 311.609375 395.433594 341.59375 395.433594 C 342.128906 399.796875 342.875 404.039062 344.675781 408.101562 C 347.554688 414.609375 352.039062 418.765625 358.433594 415.730469 C 362.050781 414.050781 361.949219 410.171875 362.050781 406.179688 C 362.566406 411.773438 363.9375 417.351562 368.367188 420.648438 C 371.714844 423.164062 376.933594 423.554688 379.851562 420.542969 C 382.078125 418.261719 382.433594 414.785156 382.59375 411.597656 C 382.859375 406.464844 383.003906 401.332031 383.003906 396.214844 L 383.304688 396.214844 C 383.695312 404.257812 383.089844 409.664062 388.628906 414.785156 C 394.152344 419.9375 400.410156 417.417969 402.175781 410.953125 C 403.039062 407.710938 402.679688 404.417969 402.230469 397.035156 C 402.246094 397.035156 402.265625 397.035156 402.28125 397.054688 C 402.601562 399.457031 403.035156 401.453125 403.527344 403.238281 C 404.652344 407.210938 408.601562 409.117188 412.625 408.335938 C 417.253906 407.445312 419.390625 403.984375 420.226562 399.746094 C 462.097656 416.765625 453.464844 490.777344 450.992188 507.335938 Z M 450.992188 507.335938 " fill-opacity="1" fill-rule="nonzero"/><path fill="#fbec39" d="M 324.148438 245.335938 L 324.148438 245.355469 C 324.148438 245.535156 317.414062 262.84375 304.691406 295.898438 C 303.550781 298.839844 300.273438 300.300781 297.335938 299.175781 L 269.371094 288.394531 L 266.664062 287.34375 L 219.753906 269.238281 C 216.835938 268.097656 215.375 264.816406 216.496094 261.875 C 216.503906 261.855469 235.964844 211.355469 235.972656 211.332031 C 237.09375 208.394531 240.386719 206.929688 243.308594 208.054688 C 243.503906 208.125 320.890625 237.996094 320.890625 237.996094 C 323.828125 239.136719 325.289062 242.398438 324.148438 245.335938 Z M 324.148438 245.335938 " fill-opacity="1" fill-rule="nonzero"/><path fill="#fbec39" d="M 323.84375 246.105469 L 323.863281 246.066406 C 323.863281 246.085938 323.84375 246.105469 323.84375 246.140625 C 323.84375 246.121094 323.84375 246.121094 323.84375 246.105469 Z M 323.84375 246.105469 " fill-opacity="1" fill-rule="nonzero"/><path fill="#fbec39" d="M 323.878906 246.015625 L 323.898438 245.996094 C 323.898438 246.015625 323.878906 246.03125 323.878906 246.050781 Z M 323.878906 246.015625 " fill-opacity="1" fill-rule="nonzero"/><path fill="#fbec39" d="M 323.988281 245.746094 L 324.023438 245.695312 C 324.003906 245.710938 324.003906 245.730469 324.003906 245.746094 C 323.988281 245.78125 323.96875 245.820312 323.953125 245.855469 C 323.953125 245.855469 323.96875 245.800781 323.988281 245.746094 Z M 323.988281 245.746094 " fill-opacity="1" fill-rule="nonzero"/><path fill="#fbec39" d="M 324.128906 245.390625 C 324.128906 245.410156 324.128906 245.410156 324.113281 245.425781 L 324.113281 245.410156 C 324.128906 245.390625 324.128906 245.390625 324.128906 245.390625 Z M 324.128906 245.390625 " fill-opacity="1" fill-rule="nonzero"/><path fill="#000000" d="M 311.117188 452.285156 L 227.140625 452.285156 C 227.140625 451.875 230.234375 435.054688 237.21875 422.789062 C 243.183594 412.292969 252.957031 404.539062 263.585938 401.777344 C 264.449219 403.164062 266.410156 402.332031 273.855469 404.273438 C 280.425781 406 287.867188 408.636719 292.671875 413.519531 C 303.300781 424.265625 308.554688 437.8125 311.117188 452.285156 Z M 311.117188 452.285156 " fill-opacity="1" fill-rule="nonzero"/><path fill="#000000" d="M 310.636719 556.914062 C 303.980469 571.242188 302.085938 582.203125 286.871094 602.058594 C 266.414062 628.746094 241.757812 636.859375 218.722656 632.085938 C 204.261719 629.085938 190.914062 617.644531 187.175781 602.609375 C 179.433594 587.277344 183.617188 572.335938 189.972656 556.398438 C 190.125 556.023438 198.707031 533.628906 208.414062 514.195312 C 208.414062 514.179688 208.433594 514.160156 208.449219 514.140625 C 208.984375 489.550781 213.496094 439.730469 226.75 418.671875 C 231.183594 411.683594 237.71875 405.859375 245.195312 402.238281 C 247.828125 400.957031 250.765625 399.921875 254.699219 398.90625 C 254.949219 398.855469 258.472656 398.230469 263.726562 398.496094 C 264.152344 398.515625 264.527344 398.746094 264.742188 399.066406 C 263.503906 399.589844 263.179688 400.484375 263.371094 401.1875 C 258.5625 400.9375 255.304688 401.527344 255.289062 401.527344 C 251.621094 402.488281 248.84375 403.453125 246.367188 404.664062 C 239.335938 408.066406 233.175781 413.558594 229.027344 420.097656 C 216.144531 440.664062 211.78125 489.464844 211.15625 513.429688 C 215.308594 514.257812 216.519531 514.570312 219.699219 515.121094 L 219.699219 517.902344 C 219.519531 517.902344 210.226562 516.214844 210.40625 516.246094 C 210.390625 516.28125 210.390625 516.316406 210.371094 516.335938 C 204.609375 529.480469 209.53125 516.039062 192.464844 557.394531 C 186.464844 572.496094 182.175781 587.03125 189.652344 601.558594 C 189.667969 601.558594 189.667969 601.574219 189.667969 601.574219 C 194.480469 610.804688 204.527344 619.144531 216.371094 621.605469 C 235.335938 625.546875 257.554688 619.839844 276.367188 597.976562 C 294.5 576.980469 299.722656 561.539062 310.171875 535.277344 C 304.902344 535.792969 300.246094 534.425781 294.523438 533.210938 C 284.859375 531.25 281.140625 530.484375 266.839844 527.542969 C 266.21875 527.417969 265.773438 526.867188 265.773438 526.226562 L 313.164062 526.226562 C 313.164062 528.96875 313.164062 531.5 313.179688 533.335938 C 313.179688 535.152344 313.199219 536.277344 313.253906 536.277344 C 313.324219 536.277344 313.625 536.222656 314.179688 536.132812 C 314.195312 536.277344 314.195312 536.402344 314.214844 536.542969 C 314.910156 544.789062 314.648438 547.429688 310.636719 556.914062 Z M 310.636719 556.914062 " fill-opacity="1" fill-rule="nonzero"/><path fill="#000000" d="M 300.96875 499.011719 C 302.214844 500.34375 300.148438 502.140625 298.992188 500.828125 L 284.785156 485.304688 L 276.402344 491.207031 C 274.382812 492.625 271.660156 492.640625 269.617188 491.207031 L 260.523438 484.789062 L 248.183594 501.453125 C 247.117188 502.882812 244.972656 501.289062 246.03125 499.847656 L 258.3125 483.238281 L 220.503906 456.613281 C 219.054688 455.589844 220.597656 453.394531 222.050781 454.421875 L 271.167969 488.996094 C 272.273438 489.78125 273.75 489.78125 274.851562 488.996094 L 312.488281 462.496094 C 312.613281 463.527344 312.699219 464.5625 312.773438 465.597656 L 287.011719 483.738281 Z M 300.96875 499.011719 " fill-opacity="1" fill-rule="nonzero"/><g clip-path="url(#4cf491e28f)"><path fill="#000000" d="M 382.539062 637.113281 C 382.574219 637.839844 382.003906 638.519531 381.203125 638.519531 C 381.1875 638.519531 381.1875 638.519531 381.1875 638.519531 C 380.070312 638.519531 305.617188 638.539062 305.367188 638.539062 C 304.617188 638.539062 304.011719 637.933594 304.011719 637.183594 C 304.011719 636.453125 304.617188 635.847656 305.367188 635.847656 L 345.03125 635.847656 C 344.605469 629.328125 344.9375 537.070312 344.960938 530.484375 C 345.832031 530.324219 346.722656 530.144531 347.613281 529.984375 C 347.699219 530.164062 347.277344 623.117188 347.683594 635.792969 C 350.585938 635.6875 358.328125 635.652344 379.78125 635.828125 L 374.40625 524.960938 C 375.292969 524.78125 376.183594 524.621094 377.074219 524.460938 C 377.074219 529.164062 375.800781 498.261719 382.539062 637.113281 Z M 382.539062 637.113281 " fill-opacity="1" fill-rule="nonzero"/></g><path fill="#000000" d="M 459.234375 370.386719 C 458.5 377.132812 457.457031 381.3125 456.785156 388.121094 C 456.609375 389.902344 459.289062 390.152344 459.460938 388.382812 C 459.8125 384.84375 460.28125 381.921875 460.730469 379.101562 C 461.160156 376.417969 461.601562 373.632812 461.949219 370.3125 C 472.109375 369.832031 482.160156 366.128906 490.230469 359.6875 C 490.8125 359.226562 490.90625 358.378906 490.441406 357.796875 C 489.980469 357.214844 489.132812 357.113281 488.554688 357.582031 C 472.332031 370.53125 450.742188 370.039062 440.160156 361.894531 C 435 357.921875 433.625 351.546875 431.980469 345.117188 C 428.394531 331.253906 428.128906 319 428.960938 304.054688 C 437.820312 305.523438 445.746094 299.761719 448.082031 291.488281 C 449.601562 290.753906 451.257812 290.597656 452.84375 290.917969 C 447.863281 300.65625 440.839844 300.566406 439.808594 306.890625 C 439.191406 310.679688 441.660156 313.828125 444.421875 316.667969 C 445.660156 317.945312 447.589844 316.066406 446.347656 314.789062 C 444.082031 312.457031 442.039062 309.9375 442.464844 307.324219 C 443.226562 302.652344 450.265625 302.101562 455.363281 291.867188 C 457.578125 293.167969 458.078125 294.542969 458.667969 295.183594 C 457.660156 306.757812 466.464844 316.363281 477.230469 316.363281 C 485.464844 316.363281 492.460938 310.773438 494.925781 303.054688 C 498.191406 304.082031 501.441406 304.992188 504.867188 304.863281 C 504.113281 308.957031 503.121094 312.960938 502.171875 316.777344 C 501.957031 317.636719 502.613281 318.449219 503.476562 318.449219 C 504.039062 318.449219 507.609375 316.34375 508.078125 315.777344 C 512.257812 313 516.21875 310.160156 520.703125 308.625 C 525.265625 309.425781 528.011719 314.824219 527.117188 319.464844 C 525.617188 327.257812 516.464844 332.707031 504.355469 328.03125 C 503.453125 327.6875 502.492188 328.371094 502.527344 329.335938 C 503.109375 346.40625 501.828125 363.683594 501.335938 380.726562 C 501.285156 382.523438 503.976562 382.597656 504.027344 380.804688 C 504.496094 364.359375 505.710938 347.8125 505.273438 331.207031 C 518.191406 335.269531 528.0625 328.789062 529.757812 319.972656 C 530.699219 315.082031 528.554688 309.992188 524.863281 307.464844 C 540.28125 303.285156 552.347656 288.628906 553.222656 272.621094 C 554.128906 256.03125 542.945312 239.539062 527.210938 234.257812 C 518.320312 231.277344 508.84375 231.703125 499.835938 230.253906 C 481.648438 227.320312 473.964844 208.417969 453.015625 209.378906 C 442.222656 209.851562 432.136719 215.558594 426.703125 224.265625 C 420.941406 233.488281 420.886719 245.550781 426.570312 254.285156 C 428.605469 257.414062 431.03125 260.628906 434.25 263.199219 C 433.78125 265.125 433.304688 266.984375 432.847656 268.726562 C 422.773438 268.003906 414.535156 276.332031 414.535156 286.480469 C 414.535156 294.359375 419.476562 301.042969 426.296875 303.390625 C 424.601562 333.179688 429.257812 344.207031 429.675781 346.96875 C 431.285156 353.246094 432.949219 359.738281 438.519531 364.03125 C 443.085938 367.546875 449.128906 369.699219 455.992188 370.257812 C 457.070312 370.34375 458.152344 370.375 459.234375 370.386719 Z M 477.230469 313.671875 C 468.433594 313.671875 461.273438 306.171875 461.273438 296.953125 C 461.273438 287.738281 468.433594 280.238281 477.230469 280.238281 C 486.03125 280.238281 493.191406 287.738281 493.191406 296.953125 C 493.191406 306.171875 486.03125 313.671875 477.230469 313.671875 Z M 458.214844 226.945312 C 454.035156 225.042969 448.757812 225.617188 445.097656 228.398438 C 441.421875 231.164062 439.429688 236.085938 440.113281 240.628906 C 440.367188 242.386719 437.691406 242.8125 437.457031 241.023438 C 436.613281 235.53125 439.035156 229.585938 443.464844 226.246094 C 447.898438 222.886719 454.265625 222.1875 459.324219 224.484375 C 460.964844 225.261719 459.8125 227.679688 458.214844 226.945312 Z M 538.082031 252 C 537.019531 250.59375 539.148438 248.945312 540.238281 250.382812 C 545.207031 256.957031 546.625 265.882812 543.914062 273.675781 C 543.308594 275.378906 540.808594 274.480469 541.367188 272.796875 C 543.753906 265.953125 542.460938 257.78125 538.082031 252 Z M 436.613281 264.863281 C 453.292969 275.140625 480.007812 259.589844 492.050781 265.769531 C 498.460938 269.0625 503.511719 276.039062 505.234375 283.976562 C 506.523438 289.945312 506.25 296.113281 505.324219 302.144531 C 501.996094 302.40625 498.785156 301.449219 495.566406 300.433594 C 497.675781 288.328125 488.683594 277.542969 477.230469 277.542969 C 468.722656 277.542969 461.542969 283.507812 459.3125 291.628906 C 458.472656 290.710938 457.511719 289.953125 456.460938 289.378906 C 457.34375 287.089844 457.964844 284.699219 458.21875 282.265625 C 458.402344 280.492188 455.726562 280.214844 455.539062 281.984375 C 455.3125 284.175781 454.753906 286.328125 453.964844 288.390625 C 452.242188 287.945312 450.429688 287.921875 448.679688 288.390625 C 449.617188 279.257812 443.785156 271.132812 435.523438 269.140625 C 435.878906 267.777344 436.246094 266.34375 436.613281 264.863281 Z M 417.226562 286.480469 C 417.226562 277.578125 424.585938 270.527344 433.136719 271.4375 C 433.402344 271.601562 433.632812 271.722656 434.132812 271.597656 C 440.914062 272.832031 446.089844 279.03125 446.089844 286.480469 C 446.089844 294.820312 439.617188 301.605469 431.660156 301.605469 C 423.703125 301.605469 417.226562 294.820312 417.226562 286.480469 Z M 417.226562 286.480469 " fill-opacity="1" fill-rule="nonzero"/><path fill="#000000" d="M 476.71875 291.929688 C 475.058594 291.121094 472.632812 292.894531 471.300781 295.882812 C 469.964844 298.875 470.226562 301.949219 471.886719 302.757812 C 473.542969 303.5625 475.96875 301.792969 477.304688 298.804688 C 478.640625 295.8125 478.375 292.738281 476.71875 291.929688 Z M 476.71875 291.929688 " fill-opacity="1" fill-rule="nonzero"/><path fill="#000000" d="M 432.273438 294.230469 C 434.03125 294.75 436.15625 292.59375 437.011719 289.421875 C 437.871094 286.246094 437.140625 283.253906 435.378906 282.734375 C 433.617188 282.214844 431.496094 284.367188 430.636719 287.542969 C 429.78125 290.71875 430.511719 293.710938 432.273438 294.230469 Z M 432.273438 294.230469 " fill-opacity="1" fill-rule="nonzero"/><path fill="#000000" d="M 439.667969 281.96875 C 440.875 283.28125 442.855469 281.460938 441.652344 280.144531 C 438.582031 276.804688 433.671875 275.488281 429.4375 276.882812 C 427.742188 277.441406 428.585938 280 430.273438 279.441406 C 433.527344 278.378906 437.304688 279.390625 439.667969 281.96875 Z M 439.667969 281.96875 " fill-opacity="1" fill-rule="nonzero"/><path fill="#000000" d="M 475.855469 285.042969 C 474.101562 285.410156 474.691406 288.058594 476.414062 287.675781 C 480.609375 286.796875 484.601562 289.929688 485.03125 294.359375 C 485.199219 296.128906 487.882812 295.882812 487.707031 294.101562 C 487.125 288.0625 481.597656 283.820312 475.855469 285.042969 Z M 475.855469 285.042969 " fill-opacity="1" fill-rule="nonzero"/><path fill="#000000" d="M 464.972656 325.085938 C 464.234375 329.519531 460.15625 333.304688 455.683594 333.703125 C 451.222656 334.109375 446.527344 331.09375 445.023438 326.855469 C 444.421875 325.167969 441.894531 326.085938 442.488281 327.757812 C 444.417969 333.1875 450.203125 336.898438 455.917969 336.386719 C 461.648438 335.875 466.683594 331.210938 467.625 325.53125 C 467.921875 323.777344 465.265625 323.324219 464.972656 325.085938 Z M 464.972656 325.085938 " fill-opacity="1" fill-rule="nonzero"/><path fill="#000000" d="M 514.128906 321.757812 C 516.429688 321.757812 518.671875 320.582031 519.980469 318.6875 C 520.996094 317.226562 518.78125 315.691406 517.769531 317.15625 C 516.964844 318.316406 515.539062 319.0625 514.128906 319.0625 C 514.125 319.0625 514.125 319.0625 514.121094 319.0625 L 514.117188 319.0625 C 512.34375 319.0625 512.332031 321.753906 514.117188 321.757812 C 514.121094 321.757812 514.125 321.757812 514.128906 321.757812 Z M 514.128906 321.757812 " fill-opacity="1" fill-rule="nonzero"/><path fill="#000000" d="M 327.070312 362.695312 C 328.121094 362.222656 328.121094 362.222656 327.859375 344.917969 C 327.847656 344.09375 327.101562 343.480469 326.328125 343.605469 L 296.492188 347.792969 C 295.773438 347.890625 295.261719 348.546875 295.34375 349.269531 C 295.773438 353.121094 303.039062 419.871094 303.402344 420.84375 C 303.601562 421.375 304.109375 421.714844 304.664062 421.714844 C 304.796875 421.714844 305.078125 421.667969 311.835938 420.773438 C 312.535156 420.679688 313.042969 420.066406 313.003906 419.367188 L 310.175781 366.027344 C 316.257812 364.738281 325.089844 362.925781 326.386719 362.804688 C 326.617188 362.824219 326.851562 362.789062 327.070312 362.695312 Z M 325.257812 360.261719 C 323.128906 360.554688 318.613281 361.476562 308.492188 363.628906 C 307.84375 363.765625 307.394531 364.355469 307.425781 365.019531 L 310.25 418.265625 L 305.808594 418.855469 C 304.667969 409.679688 299.171875 359.515625 298.160156 350.277344 L 325.191406 346.484375 C 325.257812 351.347656 325.3125 357.816406 325.257812 360.261719 Z M 325.257812 360.261719 " fill-opacity="1" fill-rule="nonzero"/><path fill="#000000" d="M 412.226562 362.90625 C 408.140625 361.273438 403.277344 362.140625 399.953125 364.972656 C 394.160156 360.28125 385.425781 361.675781 381.320312 368.859375 C 381.222656 368.90625 381.136719 368.96875 381.054688 369.039062 C 374.300781 361.570312 363.644531 364.324219 360.21875 372.808594 C 357.28125 369.675781 352.855469 367.988281 348.617188 368.511719 C 343.574219 369.109375 338.347656 373.328125 338.699219 379.09375 C 339.097656 385.460938 340.179688 395.03125 340.265625 395.582031 C 341.113281 402.722656 343.390625 412.605469 349.363281 416.535156 C 353.925781 419.5625 360.230469 417.722656 362.191406 413.902344 C 365.835938 424.765625 376.210938 426.210938 380.8125 421.492188 C 383.601562 418.632812 383.789062 414.480469 383.976562 410.699219 C 389.90625 422.941406 403.742188 421.253906 404.039062 406.886719 C 406.085938 409.21875 409.359375 410.359375 412.882812 409.660156 C 422.726562 407.75 422.695312 396.160156 421.570312 386.289062 C 420.527344 377.214844 420.617188 366.234375 412.226562 362.90625 Z M 360.65625 408.230469 C 360.523438 411.519531 360.039062 413.496094 357.859375 414.519531 C 352.171875 417.191406 348.457031 413.300781 345.898438 407.558594 C 343.265625 401.597656 342.933594 394.738281 342.605469 392.289062 C 342.144531 388.078125 341.710938 384.097656 341.382812 378.925781 C 341.121094 374.59375 345.609375 371.109375 350.179688 371.109375 C 356.722656 371.109375 359.425781 376.316406 359.851562 376.734375 C 360.695312 393.550781 360.832031 395.882812 360.65625 408.230469 Z M 381.253906 411.519531 C 381.105469 414.410156 380.789062 417.65625 378.886719 419.609375 C 376.378906 422.1875 371.890625 421.601562 369.171875 419.578125 C 365.8125 417.074219 364.03125 412.902344 363.398438 406.128906 C 363.507812 396.148438 363.289062 391.523438 362.703125 379.890625 C 362.464844 376.878906 362.75 376.296875 362.175781 375.683594 C 362.875 371.730469 366.15625 368.328125 370.09375 367.523438 C 373.871094 366.757812 378.078125 368.8125 380.332031 372.542969 C 380.417969 372.683594 380.53125 372.796875 380.65625 372.898438 C 381.203125 386.332031 382.316406 391.210938 381.253906 411.519531 Z M 400.867188 410.609375 C 399.378906 416.167969 394.253906 418.203125 389.535156 413.792969 C 384.320312 408.972656 385.035156 403.761719 384.65625 396.152344 C 383.476562 369.808594 383.308594 372.109375 383.269531 370.949219 C 386.1875 364.628906 393.945312 362.960938 398.761719 367.53125 C 400.441406 395.429688 402.121094 405.945312 400.867188 410.609375 Z M 412.367188 407.015625 C 408.859375 407.703125 405.691406 405.960938 404.828125 402.871094 C 402.195312 393.511719 403.441406 382.886719 401.820312 373.292969 C 401.699219 371.558594 401.59375 369.746094 401.445312 367.289062 C 404 364.929688 407.996094 364.117188 411.234375 365.40625 C 417.511719 367.898438 417.714844 376.167969 418.449219 382.789062 C 419.386719 391.980469 421.492188 405.242188 412.367188 407.015625 Z M 412.367188 407.015625 " fill-opacity="1" fill-rule="nonzero"/><path fill="#000000" d="M 635.550781 575.859375 L 566.667969 575.859375 C 564.085938 557.472656 562.230469 538.992188 561.121094 520.460938 C 554.269531 538.917969 547.371094 557.398438 540.519531 575.859375 L 452.75 575.859375 C 450.96875 575.859375 450.96875 578.554688 452.75 578.554688 L 635.550781 578.554688 C 637.328125 578.554688 637.328125 575.859375 635.550781 575.859375 Z M 635.550781 575.859375 " fill-opacity="1" fill-rule="nonzero"/><path fill="#000000" d="M 237.238281 297.699219 C 247.6875 295.007812 259.667969 296.574219 268.976562 288.945312 C 269.175781 288.769531 269.316406 288.589844 269.371094 288.394531 L 266.664062 287.34375 C 258.171875 293.792969 246.886719 292.441406 236.558594 295.09375 C 225.203125 298.035156 217.121094 306.484375 220.199219 316.925781 C 207.828125 323.699219 198.480469 338.097656 196.238281 353.960938 C 193.476562 373.867188 200.582031 393.542969 206.152344 406.625 C 206.847656 408.261719 209.320312 407.210938 208.628906 405.574219 C 199.957031 385.253906 196.878906 368.96875 198.90625 354.335938 C 201.007812 339.417969 209.679688 325.910156 221.179688 319.457031 C 222.796875 322.753906 225.433594 325.355469 228.601562 326.710938 C 237.128906 330.382812 243.75 323.878906 241.847656 318.085938 C 240.226562 313.148438 233.960938 312.257812 228.816406 313.542969 C 226.699219 314.074219 224.613281 314.804688 222.636719 315.699219 C 220.34375 306.679688 228.175781 300.050781 237.238281 297.699219 Z M 229.472656 316.144531 C 232.785156 315.324219 238.125 315.394531 239.285156 318.921875 C 239.925781 320.847656 238.75 323.289062 236.683594 324.339844 C 232.945312 326.285156 226.539062 324.339844 223.582031 318.226562 C 225.449219 317.355469 227.445312 316.660156 229.472656 316.144531 Z M 229.472656 316.144531 " fill-opacity="1" fill-rule="nonzero"/><path fill="#000000" d="M 379.140625 252.789062 C 376.167969 258.988281 367.851562 260.574219 361.871094 258.472656 C 358.273438 257.207031 355.230469 254.960938 352.488281 252.414062 C 352.289062 258.117188 347.476562 260.738281 343.214844 259.808594 C 342.875 262.304688 341.167969 265.011719 341.132812 265.046875 C 338.789062 268.652344 326.792969 272.398438 315.53125 267.757812 L 316.492188 265.242188 C 316.511719 265.242188 316.527344 265.261719 316.546875 265.261719 C 325.519531 269.152344 337.199219 266.179688 338.871094 263.585938 C 339.847656 262.109375 340.863281 259.238281 340.527344 258.597656 C 339.132812 257.507812 340.742188 255.417969 342.144531 256.441406 C 342.144531 256.457031 342.144531 256.457031 342.164062 256.457031 C 344.199219 257.96875 347.59375 257.367188 349.019531 255.191406 C 349.996094 253.625 350.050781 250.914062 349.144531 249.0625 C 348.589844 248.472656 348.019531 247.867188 347.46875 247.261719 C 346.390625 246.09375 347.789062 244.378906 349.019531 245.070312 C 349.960938 245.605469 350.761719 246.425781 351.351562 247.476562 C 354.644531 250.949219 358.292969 254.355469 362.78125 255.941406 C 367.65625 257.652344 374.386719 256.476562 376.71875 251.609375 C 378.640625 247.636719 376.898438 242.84375 375.6875 240.347656 C 365.171875 218.554688 333.03125 214.199219 311.207031 234.253906 L 308.554688 233.238281 C 308.871094 232.175781 317.476562 224.679688 328.261719 221.117188 C 349.339844 214.085938 370.140625 222.628906 378.105469 239.171875 C 380.5625 244.25 380.9375 249.082031 379.140625 252.789062 Z M 379.140625 252.789062 " fill-opacity="1" fill-rule="nonzero"/><path fill="#000000" d="M 255.714844 212.847656 L 252.652344 211.65625 C 238.964844 182.214844 202.101562 175.140625 185.039062 195.757812 C 183.257812 197.914062 180.410156 202.171875 181.335938 206.484375 C 182.441406 211.777344 188.6875 214.503906 193.832031 214.007812 C 198.585938 213.542969 202.929688 211.136719 206.917969 208.570312 C 207.71875 207.679688 208.71875 207.039062 209.804688 206.769531 C 211.261719 206.394531 212.148438 208.363281 210.890625 209.175781 C 210.160156 209.675781 209.445312 210.15625 208.699219 210.621094 C 207.382812 212.222656 206.8125 214.863281 207.398438 216.609375 C 208.242188 219.066406 211.433594 220.417969 213.71875 219.460938 C 215.371094 218.738281 216.390625 221.253906 214.769531 221.9375 C 214.304688 222.4375 214.628906 225.484375 215.214844 227.160156 C 216.257812 230.152344 223.753906 233.03125 227.265625 233.914062 L 226.304688 236.425781 C 222.058594 235.480469 214.113281 232.152344 212.667969 228.050781 C 212.652344 228.015625 211.652344 224.96875 211.921875 222.472656 C 207.433594 222.3125 203.5 218.613281 204.675781 213.0625 C 201.417969 214.863281 197.929688 216.304688 194.101562 216.679688 C 182.652344 217.847656 172.261719 207.035156 182.957031 194.046875 C 201.601562 171.539062 241.519531 179.507812 255.699219 211.832031 C 255.839844 212.171875 255.839844 212.546875 255.714844 212.847656 Z M 255.714844 212.847656 " fill-opacity="1" fill-rule="nonzero"/><path fill="#000000" d="M 237.160156 209.941406 L 259.871094 243.90625 L 244.550781 253.636719 C 243.050781 254.589844 244.492188 256.859375 245.992188 255.910156 L 261.367188 246.148438 L 266.773438 254.230469 C 267.785156 255.742188 269.480469 256.617188 271.246094 256.617188 C 272.398438 256.617188 272.363281 256.449219 281.234375 254.28125 L 287.988281 271.542969 C 288.636719 273.203125 291.144531 272.222656 290.492188 270.5625 L 283.867188 253.625 L 324.195312 243.527344 C 325.933594 243.089844 325.25 240.46875 323.539062 240.914062 L 271.890625 253.84375 C 270.796875 254.113281 269.636719 253.671875 269.011719 252.730469 L 239.394531 208.441406 C 238.40625 206.960938 236.171875 208.460938 237.160156 209.941406 Z M 237.160156 209.941406 " fill-opacity="1" fill-rule="nonzero"/></svg>